<?xml version="1.0" standalone="no"?>
<!DOCTYPE svg PUBLIC "-//W3C//DTD SVG 20010904//EN"
 "http://www.w3.org/TR/2001/REC-SVG-20010904/DTD/svg10.dtd">
<svg version="1.0" xmlns="http://www.w3.org/2000/svg"
 width="260.000000pt" height="260.000000pt" viewBox="0 0 260.000000 260.000000"
 preserveAspectRatio="xMidYMid meet">
<metadata>
Created by potrace 1.11, written by Peter Selinger 2001-2013
</metadata>
<g transform="translate(0.000000,260.000000) scale(0.100000,-0.100000)"
fill="#000000" stroke="none">
<path d="M2299 2565 c-3 -2 -354 -5 -780 -5 -425 -1 -886 -4 -1022 -7 l-249
-6 5 -1256 5 -1256 213 0 c118 0 582 2 1031 4 l816 4 8 21 c4 12 9 580 11
1264 4 1214 4 1242 -15 1242 -10 0 -21 -2 -23 -5z m6 -168 c11 -204 1 -2305
-10 -2316 -7 -7 -334 -12 -1008 -13 -825 -3 -998 -1 -1002 10 -3 8 -5 555 -5
1217 0 897 3 1206 12 1211 12 8 1594 21 1855 16 l151 -3 7 -122z"/>
<path d="M1285 2480 c-925 -5 -931 -6 -954 -47 -15 -29 -18 -2272 -3 -2300 7
-13 26 -25 45 -28 51 -10 1607 -11 1748 -2 69 5 132 13 140 18 12 7 14 179 11
1175 -1 845 -5 1171 -13 1180 -7 8 -27 13 -48 12 -20 -1 -436 -5 -926 -8z
m915 -73 c0 -38 -53 -112 -95 -131 -38 -18 -124 -19 -170 -1 -11 4 -1 -9 23
-30 69 -60 91 -127 57 -171 -15 -19 -15 -19 -35 4 -15 18 -17 28 -10 42 17 32
11 57 -21 90 -54 54 -105 74 -189 74 -63 1 -83 -4 -130 -28 -30 -16 -67 -37
-82 -48 -16 -11 -28 -15 -28 -9 0 16 82 77 128 94 47 19 167 23 219 8 27 -8
31 -7 26 6 -11 27 26 43 99 43 74 0 116 14 163 54 37 32 45 32 45 3z m-1297
-46 c-1 -28 -1 -51 1 -51 2 0 20 7 41 16 68 28 165 -11 165 -67 0 -18 -4 -20
-22 -14 -52 16 -87 16 -119 0 -50 -25 -66 -42 -115 -117 -58 -91 -81 -92 -49
-3 8 22 14 75 15 117 0 81 11 118 44 156 29 33 41 22 39 -37z m406 31 c33 -24
42 -63 35 -139 -7 -68 -21 -88 -54 -78 -16 5 -20 15 -20 46 0 92 -53 149 -139
149 -28 0 -51 4 -51 9 0 5 19 16 43 25 53 20 152 13 186 -12z m404 18 c61 0
97 -4 97 -11 0 -15 -66 -40 -132 -49 -80 -12 -119 -39 -183 -129 -53 -76 -80
-97 -105 -81 -17 11 53 196 90 237 32 36 51 43 100 37 19 -2 79 -4 133 -4z
m-985 -68 c31 -36 62 -114 62 -156 0 -33 -20 -96 -30 -96 -6 0 -10 19 -10 43
0 53 -31 120 -64 142 -20 14 -38 16 -76 11 -47 -6 -50 -5 -56 18 -13 53 32 89
101 81 30 -4 48 -14 73 -43z m-238 -4 c14 -26 13 -29 -6 -49 -48 -47 -123 12
-78 62 25 27 64 21 84 -13z m182 -135 c30 -46 52 -109 43 -123 -7 -12 -67 -4
-100 13 -33 16 -75 60 -75 78 0 10 4 29 10 43 8 23 15 26 53 26 40 0 47 -4 69
-37z m1103 7 c-23 -44 -57 -62 -138 -71 -40 -4 -89 -11 -111 -15 -53 -10 -45
9 25 58 46 33 67 41 125 47 122 15 117 16 99 -19z m-1273 -36 c-3 -35 2 -46
30 -76 33 -36 87 -58 141 -58 34 0 35 -17 1 -30 -92 -35 -252 30 -269 111 -7
33 17 85 42 92 46 13 58 4 55 -39z m1436 -57 c5 -22 -24 -33 -44 -16 -14 12
-14 14 2 26 22 16 38 12 42 -10z m180 -6 c4 -29 -9 -44 -31 -35 -17 6 -23 44
-10 58 14 14 38 0 41 -23z m-707 -25 c138 -48 219 -50 291 -6 26 17 51 30 54
30 19 0 -11 -116 -70 -275 -95 -254 -118 -335 -102 -360 8 -11 24 -21 37 -22
15 -1 17 0 7 3 -22 7 -35 51 -21 73 21 33 87 25 104 -13 15 -32 -13 -90 -50
-106 -38 -15 -74 -4 -121 39 -46 42 -61 89 -80 261 -13 111 -26 147 -69 193
-45 49 -98 70 -186 74 -75 4 -83 2 -132 -27 -69 -40 -105 -94 -111 -166 -6
-76 17 -131 81 -191 63 -60 137 -96 348 -168 89 -31 185 -68 213 -82 206 -104
308 -256 308 -463 0 -201 -109 -350 -302 -411 -88 -28 -232 -27 -420 3 -184
29 -365 31 -429 5 -24 -10 -46 -15 -49 -12 -7 7 8 57 95 303 59 168 74 221 70
249 -7 43 -33 73 -61 73 -20 0 -20 -1 2 -18 34 -26 27 -72 -11 -85 -37 -12
-73 6 -86 44 -13 36 5 106 31 120 30 16 120 14 154 -4 51 -26 63 -50 100 -193
56 -217 105 -298 209 -350 51 -24 62 -26 152 -22 144 6 227 49 274 140 23 45
25 134 5 183 -38 89 -171 172 -411 255 -394 136 -538 287 -523 548 10 174 133
328 313 390 82 29 97 31 196 27 67 -3 110 -12 190 -39z m550 -38 c4 -47 -26
-129 -76 -209 -20 -30 -31 -39 -45 -34 -14 5 -20 -1 -25 -25 -4 -17 -4 -48 0
-70 8 -50 -7 -53 -35 -7 -27 43 -27 134 -1 186 11 21 36 51 57 67 20 16 53 46
73 66 38 40 50 46 52 26z m-1183 -22 c6 -27 -12 -40 -37 -27 -23 13 -28 37 -8
44 22 10 42 2 45 -17z m1325 -18 c28 -24 59 -52 69 -63 53 -59 81 -163 58
-220 l-12 -30 -13 45 c-23 85 -34 104 -50 90 -12 -10 -19 -8 -35 11 -38 45
-79 146 -80 197 0 19 8 15 63 -30z m-83 -45 c17 -83 36 -125 71 -153 37 -31
31 -60 -12 -60 -21 0 -29 -5 -29 -17 0 -23 -37 -173 -44 -181 -6 -6 -8 -1 -36
88 -11 36 -20 75 -20 88 0 16 -5 23 -17 21 -53 -5 -53 1 -10 73 17 29 40 86
51 126 10 39 22 72 27 72 4 0 13 -26 19 -57z m-1303 11 c4 -15 -72 -63 -134
-85 -77 -26 -131 -63 -139 -95 -4 -14 -4 -43 -1 -65 6 -43 -1 -49 -27 -20 -34
37 -31 100 8 192 5 12 0 18 -19 23 -33 8 -30 37 5 47 14 4 70 5 125 2 55 -2
114 0 130 6 34 10 47 9 52 -5z m470 -66 c5 -7 15 -40 22 -73 7 -33 15 -70 18
-82 7 -33 -12 -28 -26 6 -7 15 -30 45 -52 67 -44 43 -46 50 -22 76 19 21 46
24 60 6z m116 -79 c-2 -58 0 -77 6 -63 10 22 36 34 59 27 20 -7 14 -40 -12
-56 -35 -24 -41 -78 -16 -149 22 -65 24 -78 10 -78 -13 0 -39 53 -62 125 -36
116 -33 295 5 282 8 -3 11 -28 10 -88z m-192 -46 c98 -87 158 -173 159 -225 0
-30 -18 -20 -30 16 -6 19 -29 55 -51 80 -33 38 -47 46 -75 46 -27 0 -34 -4
-34 -20 0 -28 -28 -25 -42 5 -15 33 5 58 44 53 39 -6 35 3 -17 40 -44 31 -59
62 -31 62 7 0 42 -26 77 -57z m759 -43 c0 -39 26 -90 45 -90 20 0 19 -19 -1
-27 -27 -10 -53 28 -60 90 -5 40 -3 57 5 57 6 0 11 -14 11 -30z m310 -35 c0
-30 -4 -55 -10 -55 -5 0 -9 25 -8 55 1 30 5 55 10 55 4 0 8 -25 8 -55z m-1612
-34 c21 -29 34 -65 47 -133 9 -51 23 -106 30 -123 18 -42 79 -101 127 -122
282 -126 349 -177 398 -306 27 -70 31 -92 28 -152 -2 -47 -9 -81 -21 -99 -25
-37 -30 -28 -16 28 15 62 4 132 -27 163 -30 30 -47 26 -54 -12 -4 -23 -7 -26
-17 -14 -31 38 -22 109 14 109 9 0 27 -10 40 -22 32 -30 29 -8 -7 50 -35 58
-162 156 -223 173 -106 31 -204 8 -255 -59 -23 -30 -27 -47 -32 -126 -6 -105
-22 -141 -77 -179 -39 -27 -83 -36 -83 -17 0 6 6 10 13 10 21 0 44 31 56 76
14 52 6 74 -25 74 -13 0 -24 1 -24 3 0 20 45 108 72 140 39 47 141 107 181
107 14 0 29 5 32 10 3 6 0 10 -7 10 -27 0 -117 49 -158 86 -65 59 -96 134 -55
134 19 0 25 23 25 94 0 51 -5 70 -25 100 -23 34 -23 36 -5 36 12 0 32 -17 48
-39z m1567 -31 c8 0 17 -4 20 -10 8 -12 -35 -13 -54 -1 -9 6 -11 16 -7 27 7
18 8 18 17 2 6 -10 16 -18 24 -18z m-225 -150 c27 -14 33 -55 14 -93 -23 -44
-22 -44 -40 -19 -23 33 -75 29 -117 -8 -19 -16 -37 -30 -40 -30 -17 0 25 82
60 118 44 44 82 54 123 32z m260 -40 c0 -6 -11 -15 -25 -20 -18 -7 -28 -23
-41 -67 -14 -48 -15 -81 -9 -198 9 -175 9 -194 -2 -279 -10 -85 -33 -103 -33
-26 0 28 -4 49 -9 45 -21 -12 -39 27 -45 97 -10 110 -41 195 -77 214 -35 17
-31 33 6 26 23 -4 56 -35 80 -76 7 -13 10 11 10 82 0 98 0 99 38 155 33 51 41
57 72 57 19 0 35 -5 35 -10z m-1710 -26 c0 -8 10 -32 22 -53 19 -33 20 -41 9
-55 -18 -22 -43 -20 -75 5 -28 22 -33 53 -14 94 13 28 58 36 58 9z m-45 -131
c58 -28 42 -88 -26 -99 -32 -5 -37 -3 -42 17 -12 43 -7 78 11 88 22 13 16 14
57 -6z m136 0 c8 -9 26 -21 41 -28 l28 -11 -57 -37 c-31 -20 -60 -37 -65 -37
-13 0 -28 47 -22 67 20 63 48 80 75 46z m-76 -122 c3 -10 -6 -40 -22 -71 l-27
-52 -28 31 c-34 38 -35 51 -3 85 28 31 71 35 80 7z m860 -143 c-27 -138 -74
-252 -130 -323 -25 -30 -49 -28 -27 3 32 43 94 190 113 267 15 58 26 85 36 85
11 0 13 -8 8 -32z m93 -16 c2 -12 -1 -37 -7 -55 -21 -64 -173 -275 -198 -276
-19 -1 -16 7 13 42 30 36 88 148 121 237 13 35 27 68 30 73 10 16 38 2 41 -21z
m72 -35 c0 -17 -94 -174 -122 -204 -12 -13 -17 -23 -12 -23 6 0 26 16 45 36
47 49 84 68 109 54 28 -15 51 -62 39 -81 -8 -12 -11 -11 -20 4 -13 22 -60 22
-102 0 -18 -9 -66 -40 -108 -70 -70 -48 -99 -62 -99 -47 0 3 22 26 48 52 43
42 137 176 184 261 18 32 38 41 38 18z m705 -48 c0 -21 -4 -24 -33 -23 -26 2
-33 -2 -38 -22 -3 -13 -12 -24 -20 -24 -17 0 -17 -3 2 53 16 47 33 59 69 47
13 -5 20 -16 20 -31z m-1477 -15 c29 -20 28 -44 -2 -44 -48 0 -63 -58 -32
-119 33 -64 9 -71 -28 -8 -44 75 -46 127 -6 167 24 24 38 25 68 4z m1298 -39
c19 -28 12 -44 -10 -26 -10 8 -16 9 -21 1 -7 -12 -42 -14 -49 -2 -3 5 -2 18 1
30 8 32 57 30 79 -3z m141 -62 c-3 -10 -10 -31 -16 -48 -5 -16 -15 -50 -21
-74 -14 -54 -52 -91 -95 -91 -42 0 -71 33 -79 93 -7 43 -5 47 13 47 11 0 22 9
26 19 14 45 57 50 69 8 6 -22 6 -22 18 -2 20 37 51 65 71 65 14 0 18 -5 14
-17z m-1570 -80 c18 -8 51 -35 73 -59 32 -35 40 -50 34 -67 -24 -77 -38 -90
-52 -47 -6 16 -26 39 -44 50 -81 49 -202 -7 -182 -86 8 -31 -11 -32 -30 -1
-22 35 -28 90 -12 113 8 11 19 38 25 60 9 34 17 43 43 51 39 13 100 6 145 -14z
m1403 -167 c0 -22 -35 -60 -49 -52 -8 5 -6 16 9 37 23 31 40 38 40 15z m149 3
c55 -19 63 -89 10 -89 -21 0 -26 16 -6 23 9 3 9 7 -2 20 -9 12 -29 17 -63 17
-43 0 -49 2 -38 14 6 8 21 17 33 19 12 2 25 5 28 6 3 0 21 -4 38 -10z m-189
-98 c0 -11 -11 -33 -25 -49 -33 -39 -32 -46 5 -27 40 21 103 19 148 -4 53 -27
104 -126 83 -160 -7 -11 -18 -7 -50 21 -62 53 -111 64 -205 44 -42 -9 -89 -22
-104 -30 -51 -26 -104 -28 -140 -6 -39 24 -53 56 -40 90 11 28 90 110 107 110
22 0 35 -48 22 -76 -22 -48 -3 -37 23 13 29 58 39 68 86 81 59 17 90 15 90 -7z
m-1399 -30 c21 -22 29 -39 29 -65 0 -66 -56 -156 -97 -156 -8 0 -3 14 12 36
16 24 25 51 25 76 0 45 -19 58 -56 38 -30 -16 -46 -4 -46 35 0 66 80 88 133
36z m407 2 c-5 -28 -238 -187 -383 -262 -22 -11 -33 -20 -25 -20 8 -1 71 28
140 64 297 154 324 165 412 165 43 0 89 -5 101 -11 12 -6 58 -46 102 -88 70
-67 111 -94 178 -115 32 -10 17 -26 -25 -26 -87 0 -166 21 -230 61 -112 70
-145 82 -207 75 -31 -3 -83 -15 -116 -26 l-60 -21 50 6 c28 3 90 8 139 12 80
5 88 4 85 -12 -4 -15 -19 -18 -120 -21 -137 -5 -236 -22 -378 -66 -75 -23
-106 -29 -109 -20 -3 9 -12 8 -38 -3 -22 -9 -36 -10 -40 -4 -3 6 -22 8 -45 4
-26 -5 -39 -3 -39 4 0 16 59 50 100 57 19 4 44 11 55 17 46 23 117 92 147 143
20 33 42 57 56 61 31 7 35 1 22 -33 -19 -50 -57 -91 -130 -139 -39 -26 -69
-50 -66 -52 9 -9 199 107 239 145 20 20 37 45 37 57 0 30 16 49 34 42 10 -4
13 -12 9 -23 -7 -19 -5 -18 56 23 40 28 54 29 49 6z m500 -65 c7 -7 12 -23 12
-36 0 -25 -48 -52 -94 -52 -34 0 -42 18 -12 26 14 3 31 13 38 21 10 12 9 17
-5 25 -10 5 -15 13 -12 19 9 13 59 11 73 -3z m147 -98 c11 -18 -49 -32 -144
-34 -67 -1 -95 3 -98 12 -4 9 14 12 64 13 37 1 82 5 98 9 44 11 73 11 80 0z"/>
<path d="M2045 1055 c2 -22 5 -50 5 -62 0 -13 5 -23 11 -23 7 0 8 14 4 43 -10
59 -27 95 -20 42z"/>
</g>
</svg>
